<mxfile host="app.diagrams.net" agent="Mozilla/5.0 (Windows NT 10.0; Win64; x64) AppleWebKit/537.36 (KHTML, like Gecko) Chrome/131.0.0.0 Safari/537.36" version="24.8.4">
  <diagram name="PÃ¡gina-1" id="SKRLu6_MuARgDEXjkevO">
    <mxGraphModel dx="5127" dy="2909" grid="1" gridSize="10" guides="1" tooltips="1" connect="1" arrows="1" fold="1" page="1" pageScale="1" pageWidth="827" pageHeight="1169" math="0" shadow="0">
      <root>
        <mxCell id="0" />
        <mxCell id="1" parent="0" />
        <mxCell id="TCKFNK1VzcnC_DEqVwrI-56" value="" style="rounded=0;whiteSpace=wrap;html=1;fillColor=none;" parent="1" vertex="1">
          <mxGeometry x="-346" y="-450" width="916" height="370" as="geometry" />
        </mxCell>
        <mxCell id="TCKFNK1VzcnC_DEqVwrI-37" value="" style="rounded=0;whiteSpace=wrap;html=1;fillColor=none;" parent="1" vertex="1">
          <mxGeometry x="-40" y="140" width="550" height="440" as="geometry" />
        </mxCell>
        <mxCell id="TCKFNK1VzcnC_DEqVwrI-23" style="edgeStyle=orthogonalEdgeStyle;rounded=0;orthogonalLoop=1;jettySize=auto;html=1;entryX=0.5;entryY=1;entryDx=0;entryDy=0;endArrow=none;endFill=0;" parent="1" source="rzBa53KAy4_Ree1vub73-3" target="TCKFNK1VzcnC_DEqVwrI-22" edge="1">
          <mxGeometry relative="1" as="geometry">
            <mxPoint x="330" y="410" as="sourcePoint" />
          </mxGeometry>
        </mxCell>
        <mxCell id="TCKFNK1VzcnC_DEqVwrI-8" value="FootballMatch" style="swimlane;fontStyle=0;childLayout=stackLayout;horizontal=1;startSize=52;fillColor=none;horizontalStack=0;resizeParent=1;resizeParentMax=0;resizeLast=0;collapsible=1;marginBottom=0;whiteSpace=wrap;html=1;" parent="1" vertex="1">
          <mxGeometry x="660" y="-90" width="630" height="784" as="geometry" />
        </mxCell>
        <mxCell id="wIdlH4sXU4vHMds8f0Tk-2" style="edgeStyle=orthogonalEdgeStyle;rounded=0;orthogonalLoop=1;jettySize=auto;html=1;exitX=0.5;exitY=1;exitDx=0;exitDy=0;" parent="TCKFNK1VzcnC_DEqVwrI-8" edge="1">
          <mxGeometry relative="1" as="geometry">
            <mxPoint x="160" y="784" as="sourcePoint" />
            <mxPoint x="160" y="784" as="targetPoint" />
          </mxGeometry>
        </mxCell>
        <mxCell id="TCKFNK1VzcnC_DEqVwrI-30" style="edgeStyle=orthogonalEdgeStyle;rounded=0;orthogonalLoop=1;jettySize=auto;html=1;entryX=0.5;entryY=1;entryDx=0;entryDy=0;endArrow=none;endFill=0;" parent="1" source="TCKFNK1VzcnC_DEqVwrI-22" target="TCKFNK1VzcnC_DEqVwrI-27" edge="1">
          <mxGeometry relative="1" as="geometry" />
        </mxCell>
        <mxCell id="TCKFNK1VzcnC_DEqVwrI-22" value="Player" style="swimlane;fontStyle=0;childLayout=stackLayout;horizontal=1;startSize=26;fillColor=none;horizontalStack=0;resizeParent=1;resizeParentMax=0;resizeLast=0;collapsible=1;marginBottom=0;whiteSpace=wrap;html=1;" parent="1" vertex="1">
          <mxGeometry x="260" y="310" width="140" height="52" as="geometry" />
        </mxCell>
        <mxCell id="TCKFNK1VzcnC_DEqVwrI-27" value="PlayerController" style="swimlane;fontStyle=0;childLayout=stackLayout;horizontal=1;startSize=26;fillColor=none;horizontalStack=0;resizeParent=1;resizeParentMax=0;resizeLast=0;collapsible=1;marginBottom=0;whiteSpace=wrap;html=1;" parent="1" vertex="1">
          <mxGeometry x="260" y="170" width="140" height="52" as="geometry" />
        </mxCell>
        <mxCell id="TCKFNK1VzcnC_DEqVwrI-38" value="Agent Layer" style="html=1;whiteSpace=wrap;" parent="1" vertex="1">
          <mxGeometry x="-40" y="100" width="150" height="40" as="geometry" />
        </mxCell>
        <mxCell id="TCKFNK1VzcnC_DEqVwrI-41" value="Scene Layer" style="html=1;whiteSpace=wrap;" parent="1" vertex="1">
          <mxGeometry x="660" y="-130" width="150" height="40" as="geometry" />
        </mxCell>
        <mxCell id="TCKFNK1VzcnC_DEqVwrI-53" style="edgeStyle=orthogonalEdgeStyle;rounded=0;orthogonalLoop=1;jettySize=auto;html=1;endArrow=none;endFill=0;entryX=0;entryY=0.5;entryDx=0;entryDy=0;exitX=0.5;exitY=0;exitDx=0;exitDy=0;" parent="1" source="TCKFNK1VzcnC_DEqVwrI-48" edge="1" target="TCKFNK1VzcnC_DEqVwrI-51">
          <mxGeometry relative="1" as="geometry">
            <mxPoint x="-30" y="-399.9999999999998" as="targetPoint" />
            <mxPoint x="-130" y="-313" as="sourcePoint" />
            <Array as="points">
              <mxPoint x="-140" y="-368" />
            </Array>
          </mxGeometry>
        </mxCell>
        <mxCell id="TCKFNK1VzcnC_DEqVwrI-48" value="SceneManager" style="swimlane;fontStyle=0;childLayout=stackLayout;horizontal=1;startSize=26;fillColor=none;horizontalStack=0;resizeParent=1;resizeParentMax=0;resizeLast=0;collapsible=1;marginBottom=0;whiteSpace=wrap;html=1;" parent="1" vertex="1">
          <mxGeometry x="-210" y="-294" width="140" height="52" as="geometry" />
        </mxCell>
        <mxCell id="TCKFNK1VzcnC_DEqVwrI-54" style="edgeStyle=orthogonalEdgeStyle;rounded=0;orthogonalLoop=1;jettySize=auto;html=1;endArrow=none;endFill=0;entryX=0.5;entryY=1;entryDx=0;entryDy=0;exitX=0.5;exitY=0;exitDx=0;exitDy=0;" parent="1" source="TCKFNK1VzcnC_DEqVwrI-49" edge="1" target="TCKFNK1VzcnC_DEqVwrI-51">
          <mxGeometry relative="1" as="geometry">
            <mxPoint x="120" y="-344" as="targetPoint" />
            <Array as="points">
              <mxPoint x="120" y="-260" />
              <mxPoint x="120" y="-342" />
            </Array>
          </mxGeometry>
        </mxCell>
        <mxCell id="TCKFNK1VzcnC_DEqVwrI-49" value="ModeManager" style="swimlane;fontStyle=0;childLayout=stackLayout;horizontal=1;startSize=26;fillColor=none;horizontalStack=0;resizeParent=1;resizeParentMax=0;resizeLast=0;collapsible=1;marginBottom=0;whiteSpace=wrap;html=1;" parent="1" vertex="1">
          <mxGeometry x="50" y="-260" width="140" height="52" as="geometry" />
        </mxCell>
        <mxCell id="TCKFNK1VzcnC_DEqVwrI-55" style="edgeStyle=orthogonalEdgeStyle;rounded=0;orthogonalLoop=1;jettySize=auto;html=1;entryX=1;entryY=0.75;entryDx=0;entryDy=0;endArrow=none;endFill=0;" parent="1" source="TCKFNK1VzcnC_DEqVwrI-50" target="TCKFNK1VzcnC_DEqVwrI-51" edge="1">
          <mxGeometry relative="1" as="geometry">
            <Array as="points">
              <mxPoint x="460" y="-355" />
            </Array>
          </mxGeometry>
        </mxCell>
        <mxCell id="TCKFNK1VzcnC_DEqVwrI-50" value="MatchManager" style="swimlane;fontStyle=0;childLayout=stackLayout;horizontal=1;startSize=26;fillColor=none;horizontalStack=0;resizeParent=1;resizeParentMax=0;resizeLast=0;collapsible=1;marginBottom=0;whiteSpace=wrap;html=1;" parent="1" vertex="1">
          <mxGeometry x="260" y="-280" width="140" height="52" as="geometry" />
        </mxCell>
        <mxCell id="TCKFNK1VzcnC_DEqVwrI-51" value="GameManager" style="swimlane;fontStyle=0;childLayout=stackLayout;horizontal=1;startSize=26;fillColor=none;horizontalStack=0;resizeParent=1;resizeParentMax=0;resizeLast=0;collapsible=1;marginBottom=0;whiteSpace=wrap;html=1;" parent="1" vertex="1">
          <mxGeometry x="30" y="-394" width="140" height="52" as="geometry" />
        </mxCell>
        <mxCell id="TCKFNK1VzcnC_DEqVwrI-57" value="Managers Layer" style="html=1;whiteSpace=wrap;" parent="1" vertex="1">
          <mxGeometry x="-346" y="-490" width="150" height="40" as="geometry" />
        </mxCell>
        <mxCell id="wIdlH4sXU4vHMds8f0Tk-6" value="Ball" style="swimlane;fontStyle=0;childLayout=stackLayout;horizontal=1;startSize=26;fillColor=none;horizontalStack=0;resizeParent=1;resizeParentMax=0;resizeLast=0;collapsible=1;marginBottom=0;whiteSpace=wrap;html=1;" parent="1" vertex="1">
          <mxGeometry x="760" y="533" width="140" height="52" as="geometry" />
        </mxCell>
        <mxCell id="wIdlH4sXU4vHMds8f0Tk-7" value="Goal" style="swimlane;fontStyle=0;childLayout=stackLayout;horizontal=1;startSize=26;fillColor=none;horizontalStack=0;resizeParent=1;resizeParentMax=0;resizeLast=0;collapsible=1;marginBottom=0;whiteSpace=wrap;html=1;" parent="1" vertex="1">
          <mxGeometry x="750" y="610" width="140" height="52" as="geometry" />
        </mxCell>
        <mxCell id="rzBa53KAy4_Ree1vub73-1" value="Head" style="swimlane;fontStyle=0;childLayout=stackLayout;horizontal=1;startSize=26;fillColor=none;horizontalStack=0;resizeParent=1;resizeParentMax=0;resizeLast=0;collapsible=1;marginBottom=0;whiteSpace=wrap;html=1;" vertex="1" parent="1">
          <mxGeometry x="180" y="432" width="140" height="52" as="geometry" />
        </mxCell>
        <mxCell id="rzBa53KAy4_Ree1vub73-2" value="" style="endArrow=none;html=1;rounded=0;entryX=0.5;entryY=1;entryDx=0;entryDy=0;" edge="1" parent="1" target="TCKFNK1VzcnC_DEqVwrI-22">
          <mxGeometry width="50" height="50" relative="1" as="geometry">
            <mxPoint x="260" y="432" as="sourcePoint" />
            <mxPoint x="310" y="392" as="targetPoint" />
            <Array as="points">
              <mxPoint x="260" y="400" />
              <mxPoint x="330" y="400" />
            </Array>
          </mxGeometry>
        </mxCell>
        <mxCell id="rzBa53KAy4_Ree1vub73-3" value="Shoe" style="swimlane;fontStyle=0;childLayout=stackLayout;horizontal=1;startSize=26;fillColor=none;horizontalStack=0;resizeParent=1;resizeParentMax=0;resizeLast=0;collapsible=1;marginBottom=0;whiteSpace=wrap;html=1;" vertex="1" parent="1">
          <mxGeometry x="330" y="432" width="140" height="52" as="geometry" />
        </mxCell>
        <mxCell id="rzBa53KAy4_Ree1vub73-9" value="Wall" style="swimlane;fontStyle=0;childLayout=stackLayout;horizontal=1;startSize=26;fillColor=none;horizontalStack=0;resizeParent=1;resizeParentMax=0;resizeLast=0;collapsible=1;marginBottom=0;whiteSpace=wrap;html=1;" vertex="1" parent="1">
          <mxGeometry x="1080" y="270" width="140" height="52" as="geometry" />
        </mxCell>
        <mxCell id="rzBa53KAy4_Ree1vub73-10" value="Floor" style="swimlane;fontStyle=0;childLayout=stackLayout;horizontal=1;startSize=26;fillColor=none;horizontalStack=0;resizeParent=1;resizeParentMax=0;resizeLast=0;collapsible=1;marginBottom=0;whiteSpace=wrap;html=1;" vertex="1" parent="1">
          <mxGeometry x="1080" y="350" width="140" height="52" as="geometry" />
        </mxCell>
        <mxCell id="rzBa53KAy4_Ree1vub73-11" value="ScoreBoard" style="swimlane;fontStyle=0;childLayout=stackLayout;horizontal=1;startSize=26;fillColor=none;horizontalStack=0;resizeParent=1;resizeParentMax=0;resizeLast=0;collapsible=1;marginBottom=0;whiteSpace=wrap;html=1;" vertex="1" parent="1">
          <mxGeometry x="1080" y="430" width="140" height="52" as="geometry" />
        </mxCell>
        <mxCell id="rzBa53KAy4_Ree1vub73-12" value="" style="endArrow=none;html=1;rounded=0;entryX=0.5;entryY=1;entryDx=0;entryDy=0;exitX=0;exitY=0.5;exitDx=0;exitDy=0;" edge="1" parent="1" source="rzBa53KAy4_Ree1vub73-11" target="TCKFNK1VzcnC_DEqVwrI-50">
          <mxGeometry width="50" height="50" relative="1" as="geometry">
            <mxPoint x="640" y="250" as="sourcePoint" />
            <mxPoint x="690" y="200" as="targetPoint" />
            <Array as="points">
              <mxPoint x="570" y="456" />
              <mxPoint x="550" />
              <mxPoint x="330" y="-10" />
            </Array>
          </mxGeometry>
        </mxCell>
        <mxCell id="rzBa53KAy4_Ree1vub73-13" value="FootballMatch" style="swimlane;fontStyle=0;childLayout=stackLayout;horizontal=1;startSize=52;fillColor=none;horizontalStack=0;resizeParent=1;resizeParentMax=0;resizeLast=0;collapsible=1;marginBottom=0;whiteSpace=wrap;html=1;" vertex="1" parent="1">
          <mxGeometry x="1290" y="-90" width="630" height="240" as="geometry" />
        </mxCell>
        <mxCell id="rzBa53KAy4_Ree1vub73-14" style="edgeStyle=orthogonalEdgeStyle;rounded=0;orthogonalLoop=1;jettySize=auto;html=1;exitX=0.5;exitY=1;exitDx=0;exitDy=0;" edge="1" parent="rzBa53KAy4_Ree1vub73-13">
          <mxGeometry relative="1" as="geometry">
            <mxPoint x="160" y="784" as="sourcePoint" />
            <mxPoint x="160" y="784" as="targetPoint" />
          </mxGeometry>
        </mxCell>
        <mxCell id="rzBa53KAy4_Ree1vub73-15" value="MenuInicial" style="swimlane;fontStyle=0;childLayout=stackLayout;horizontal=1;startSize=52;fillColor=none;horizontalStack=0;resizeParent=1;resizeParentMax=0;resizeLast=0;collapsible=1;marginBottom=0;whiteSpace=wrap;html=1;" vertex="1" parent="1">
          <mxGeometry x="1290" y="150" width="630" height="240" as="geometry" />
        </mxCell>
        <mxCell id="rzBa53KAy4_Ree1vub73-16" style="edgeStyle=orthogonalEdgeStyle;rounded=0;orthogonalLoop=1;jettySize=auto;html=1;exitX=0.5;exitY=1;exitDx=0;exitDy=0;" edge="1" parent="rzBa53KAy4_Ree1vub73-15">
          <mxGeometry relative="1" as="geometry">
            <mxPoint x="160" y="784" as="sourcePoint" />
            <mxPoint x="160" y="784" as="targetPoint" />
          </mxGeometry>
        </mxCell>
        <mxCell id="rzBa53KAy4_Ree1vub73-17" value="Select1" style="swimlane;fontStyle=0;childLayout=stackLayout;horizontal=1;startSize=52;fillColor=none;horizontalStack=0;resizeParent=1;resizeParentMax=0;resizeLast=0;collapsible=1;marginBottom=0;whiteSpace=wrap;html=1;" vertex="1" parent="1">
          <mxGeometry x="1290" y="390" width="630" height="120" as="geometry" />
        </mxCell>
        <mxCell id="rzBa53KAy4_Ree1vub73-18" style="edgeStyle=orthogonalEdgeStyle;rounded=0;orthogonalLoop=1;jettySize=auto;html=1;exitX=0.5;exitY=1;exitDx=0;exitDy=0;" edge="1" parent="rzBa53KAy4_Ree1vub73-17">
          <mxGeometry relative="1" as="geometry">
            <mxPoint x="160" y="784" as="sourcePoint" />
            <mxPoint x="160" y="784" as="targetPoint" />
          </mxGeometry>
        </mxCell>
        <mxCell id="rzBa53KAy4_Ree1vub73-19" value="Select2" style="swimlane;fontStyle=0;childLayout=stackLayout;horizontal=1;startSize=52;fillColor=none;horizontalStack=0;resizeParent=1;resizeParentMax=0;resizeLast=0;collapsible=1;marginBottom=0;whiteSpace=wrap;html=1;" vertex="1" parent="1">
          <mxGeometry x="1290" y="510" width="630" height="120" as="geometry" />
        </mxCell>
        <mxCell id="rzBa53KAy4_Ree1vub73-20" style="edgeStyle=orthogonalEdgeStyle;rounded=0;orthogonalLoop=1;jettySize=auto;html=1;exitX=0.5;exitY=1;exitDx=0;exitDy=0;" edge="1" parent="rzBa53KAy4_Ree1vub73-19">
          <mxGeometry relative="1" as="geometry">
            <mxPoint x="160" y="784" as="sourcePoint" />
            <mxPoint x="160" y="784" as="targetPoint" />
          </mxGeometry>
        </mxCell>
        <mxCell id="rzBa53KAy4_Ree1vub73-21" value="FinalMenu" style="swimlane;fontStyle=0;childLayout=stackLayout;horizontal=1;startSize=52;fillColor=none;horizontalStack=0;resizeParent=1;resizeParentMax=0;resizeLast=0;collapsible=1;marginBottom=0;whiteSpace=wrap;html=1;" vertex="1" parent="1">
          <mxGeometry x="1290" y="630" width="630" height="120" as="geometry" />
        </mxCell>
        <mxCell id="rzBa53KAy4_Ree1vub73-22" style="edgeStyle=orthogonalEdgeStyle;rounded=0;orthogonalLoop=1;jettySize=auto;html=1;exitX=0.5;exitY=1;exitDx=0;exitDy=0;" edge="1" parent="rzBa53KAy4_Ree1vub73-21">
          <mxGeometry relative="1" as="geometry">
            <mxPoint x="160" y="784" as="sourcePoint" />
            <mxPoint x="160" y="784" as="targetPoint" />
          </mxGeometry>
        </mxCell>
      </root>
    </mxGraphModel>
  </diagram>
</mxfile>
